<svg id="Layer_1" data-name="Layer 1" xmlns="http://www.w3.org/2000/svg" xmlns:xlink="http://www.w3.org/1999/xlink" viewBox="0 0 718.83 718.83"><defs><style>.cls-1{fill:url(#linear-gradient);}.cls-2{fill:#865f43;}.cls-3{fill:#735439;opacity:0.21;}.cls-3,.cls-5{isolation:isolate;}.cls-4{fill:#a97d58;}.cls-5{fill:#f47721;opacity:0.5;}.cls-6{fill:#8b6848;}.cls-7{fill:#9d6a28;}.cls-8{fill:none;stroke:#231f20;stroke-miterlimit:10;stroke-width:13px;}</style><linearGradient id="linear-gradient" y1="359.64" x2="718.83" y2="359.64" gradientUnits="userSpaceOnUse"><stop offset="0" stop-color="#1e6db6"/><stop offset="0.01" stop-color="#093655"/></linearGradient></defs><rect class="cls-1" y="0.22" width="718.83" height="718.83"/><g id="Artwork_3" data-name="Artwork 3"><path class="cls-2" d="M461.59,490.39l-18.54-7.8.63-95.56,17.91-1.17Q461.58,438.12,461.59,490.39Z"/><path class="cls-3" d="M277.63,488.19l-16,.34q.06-50.56.11-101.14l15.36.33Z"/><path class="cls-2" d="M277.63,589.26l-20,7.51V497.94h20Z"/><path class="cls-2" d="M278.69,482.19l-17.19,10q.17-52.79.33-105.47l17.65.22Z"/><rect class="cls-4" x="458.93" y="591.91" width="2.64" height="9.7"/><path class="cls-5" d="M443.57,482l-164.88.15.85-99.52,164.64.06Q443.9,432.38,443.57,482Z"/><path class="cls-5" d="M444.1,589.14l-166.47.12V497.94l166.9-.63Q444.32,543.22,444.1,589.14Z"/><rect class="cls-5" x="277.67" y="607.79" width="167.75" height="71.46"/><path class="cls-6" d="M443.05,486.32H275.88v-3.73Z"/><path class="cls-7" d="M262.21,703.53h-4.6V604.7h4Q261.92,654.11,262.21,703.53Z"/><rect class="cls-7" x="461.59" y="385.34" width="5.11" height="105.04"/><rect class="cls-7" x="461.58" y="604.7" width="5.11" height="98.83"/><path class="cls-2" d="M462.53,597.43l-18.43-8.29.48-91.83,17.91.29Z"/><path class="cls-2" d="M277.63,607.79v71.47l-16,24.23v-95.7Z"/><path class="cls-2" d="M461.58,703.53l-16.14-24.24v-71.5l16.14-.07Z"/><path class="cls-2" d="M444.1,589.14H277.41l-19.8,7.63q52.08.47,104.16.46,49.92,0,99.84-.46Z"/><path class="cls-2" d="M461.58,703.53H262.21l15.93-24.24H445.48Z"/><path class="cls-7" d="M467,719.42l-210.47-.37q.51-7.77,1.05-15.52H466.7Q466.85,711.48,467,719.42Z"/><path class="cls-7" d="M466.7,607.72H257.61v-11H466.7Z"/><rect class="cls-7" x="257.58" y="497.94" width="3.72" height="98.83"/><rect class="cls-7" x="461.58" y="495.74" width="5.11" height="101.03"/><path class="cls-7" d="M466.7,497.88l-209.09.06v-7.63l209.12.08Z"/><rect class="cls-7" x="257.38" y="379.82" width="4.12" height="112.35"/><path class="cls-7" d="M466.7,386.86q-52.6.38-105.23.38-51.95,0-103.89-.38V376.18H466.7Z"/><path class="cls-2" d="M464.43,491.3l-206.82.23,22.61-10.72,164.24.41Z"/></g><g id="Artwork_3-2" data-name="Artwork 3"><path class="cls-2" d="M217,490.56l-18.5-7.78.63-95.33L217,386.28Q217,438.42,217,490.56Z"/><path class="cls-3" d="M33.49,488.37l-15.93.34q.06-50.44.1-100.9l15.33.34Z"/><path class="cls-2" d="M33.49,589.2l-20,7.49V498.1h20Z"/><path class="cls-2" d="M34.54,482.38l-17.14,10q.17-52.67.33-105.21l17.6.22Z"/><rect class="cls-4" x="214.36" y="591.84" width="2.64" height="9.68"/><path class="cls-5" d="M199,482.24l-164.49.14.85-99.28,164.25.06Q199.36,432.71,199,482.24Z"/><path class="cls-5" d="M199.56,589.08l-166.07.12V498.1l166.5-.63Q199.78,543.27,199.56,589.08Z"/><rect class="cls-5" x="33.53" y="607.68" width="167.35" height="71.29"/><path class="cls-6" d="M198.51,486.5H31.75v-3.72Z"/><path class="cls-7" d="M18.1,703.19H13.52V604.6h4Q17.82,653.89,18.1,703.19Z"/><rect class="cls-7" x="217.01" y="385.77" width="5.1" height="104.79"/><rect class="cls-7" x="217" y="604.6" width="5.1" height="98.59"/><path class="cls-2" d="M217.94,597.35l-18.38-8.27.48-91.61,17.87.29Z"/><path class="cls-2" d="M33.49,607.68V679L17.56,703.16V607.68Z"/><path class="cls-2" d="M217,703.19,200.89,679V607.68l16.11-.06Z"/><path class="cls-2" d="M199.56,589.08H33.27l-19.75,7.61q52,.46,103.91.46,49.8,0,99.6-.46Z"/><path class="cls-2" d="M217,703.19H18.1L34,679H200.94Z"/><path class="cls-7" d="M222.43,719.05l-210-.38q.51-7.74,1-15.48H222.1Z"/><path class="cls-7" d="M222.1,607.62H13.52V596.69H222.1Z"/><rect class="cls-7" x="13.49" y="498.1" width="3.71" height="98.59"/><rect class="cls-7" x="217" y="495.9" width="5.1" height="100.79"/><path class="cls-7" d="M222.1,498l-208.58.07v-7.61l208.62.07Z"/><rect class="cls-7" x="13.29" y="380.26" width="4.11" height="112.08"/><path class="cls-7" d="M222.1,387.28q-52.47.39-105,.38-51.82,0-103.64-.38V376.63H222.1Z"/><path class="cls-2" d="M219.85,491.47l-206.33.24L36.08,481l163.84.41Z"/></g><g id="Artwork_3-3" data-name="Artwork 3"><path class="cls-2" d="M704.23,490.71l-18.52-7.79.63-95.45,17.89-1.17Q704.22,438.5,704.23,490.71Z"/><path class="cls-3" d="M520.47,488.52l-16,.34q.06-50.52.1-101l15.35.34Z"/><path class="cls-2" d="M520.47,589.48l-20,7.5V498.26h20Z"/><path class="cls-2" d="M521.53,482.52l-17.17,10q.15-52.72.33-105.35l17.62.22Z"/><rect class="cls-4" x="701.58" y="592.12" width="2.64" height="9.69"/><path class="cls-5" d="M686.23,482.38l-164.7.14.85-99.41,164.46.06Q686.56,432.78,686.23,482.38Z"/><path class="cls-5" d="M686.76,589.36l-166.29.12V498.26l166.72-.64Q687,543.49,686.76,589.36Z"/><rect class="cls-5" x="520.51" y="607.98" width="167.57" height="71.39"/><path class="cls-6" d="M685.71,486.65h-167v-3.73Z"/><path class="cls-7" d="M505.06,703.62h-4.58V604.9h4Q504.78,654.26,505.06,703.62Z"/><rect class="cls-7" x="704.23" y="385.78" width="5.1" height="104.93"/><rect class="cls-7" x="704.22" y="604.9" width="5.1" height="98.72"/><path class="cls-2" d="M705.17,597.64l-18.41-8.28.48-91.74,17.89.3Z"/><path class="cls-2" d="M520.47,608v71.4l-16,24.21V608Z"/><path class="cls-2" d="M704.22,703.62,688.1,679.41V608l16.12-.06Z"/><path class="cls-2" d="M686.76,589.36H520.25L500.48,597q52,.46,104,.46,49.86,0,99.73-.46Z"/><path class="cls-2" d="M704.22,703.62H505.06L521,679.41H688.14Z"/><path class="cls-7" d="M709.66,719.5l-210.24-.38q.51-7.75,1.06-15.5H709.33Z"/><path class="cls-7" d="M709.33,607.92H500.48V597H709.33Z"/><rect class="cls-7" x="500.44" y="498.26" width="3.72" height="98.72"/><rect class="cls-7" x="704.22" y="496.06" width="5.1" height="100.92"/><path class="cls-7" d="M709.33,498.19l-208.85.07v-7.62l208.89.07Z"/><rect class="cls-7" x="500.24" y="380.27" width="4.12" height="112.23"/><path class="cls-7" d="M709.33,387.3q-52.55.38-105.11.38-51.88,0-103.78-.38V376.63H709.33Z"/><path class="cls-2" d="M707.07,491.63l-206.59.23,22.58-10.72,164.06.41Z"/></g><rect class="cls-8" x="542.8" y="73.58" width="91.7" height="113.57"/><rect class="cls-8" x="373.2" y="73.58" width="91.7" height="113.57"/><rect class="cls-8" x="198.8" y="73.58" width="91.7" height="113.57"/><rect class="cls-8" x="27.35" y="73.58" width="91.7" height="113.57"/></svg>