<svg id="Layer_1" data-name="Layer 1" xmlns="http://www.w3.org/2000/svg" xmlns:xlink="http://www.w3.org/1999/xlink" viewBox="0 0 718.83 718.83"><defs><style>.cls-1{fill:url(#linear-gradient);}.cls-14,.cls-2,.cls-6{opacity:0.5;}.cls-2{fill:url(#linear-gradient-2);}.cls-10,.cls-17,.cls-3,.cls-9{stroke:#231f20;stroke-miterlimit:10;}.cls-3{fill:url(#linear-gradient-3);}.cls-4{fill:#231f20;}.cls-5{fill:url(#linear-gradient-4);}.cls-6{fill:url(#linear-gradient-5);}.cls-7{fill:url(#linear-gradient-6);}.cls-8{fill:url(#linear-gradient-7);}.cls-9{fill:url(#linear-gradient-8);}.cls-10{fill:url(#linear-gradient-9);}.cls-11{fill:#865f43;}.cls-12{fill:#735439;opacity:0.21;}.cls-12,.cls-14{isolation:isolate;}.cls-13{fill:#a97d58;}.cls-14{fill:#f47721;}.cls-15{fill:#8b6848;}.cls-16{fill:#9d6a28;}.cls-17{fill:none;stroke-width:13px;}</style><linearGradient id="linear-gradient" x1="177.04" y1="265.27" x2="681.85" y2="265.27" gradientTransform="matrix(-1.44, 0, 0, -1.67, 978.59, 804.77)" gradientUnits="userSpaceOnUse"><stop offset="0" stop-color="#1d6cb6"/><stop offset="0" stop-color="#145186"/><stop offset="0" stop-color="#0e3d62"/><stop offset="0" stop-color="#0b3555"/></linearGradient><linearGradient id="linear-gradient-2" x1="718.83" y1="388.86" x2="313.79" y2="388.86" gradientUnits="userSpaceOnUse"><stop offset="0" stop-color="#00aeef" stop-opacity="0.5"/><stop offset="0.29" stop-color="#0676a8" stop-opacity="0.73"/><stop offset="0.67" stop-color="#0b466b" stop-opacity="0.93"/><stop offset="1" stop-color="#0d3556"/></linearGradient><linearGradient id="linear-gradient-3" x1="346.22" y1="666.55" x2="359.42" y2="666.55" gradientTransform="translate(-310.6 1025.22) rotate(-90.5)" gradientUnits="userSpaceOnUse"><stop offset="0" stop-color="#3c2415"/><stop offset="1" stop-color="#754c29"/></linearGradient><linearGradient id="linear-gradient-4" x1="632.23" y1="391.81" x2="509.73" y2="391.81" gradientUnits="userSpaceOnUse"><stop offset="0" stop-color="#00aeef"/><stop offset="0" stop-color="#038ec7"/><stop offset="0" stop-color="#076e9f"/><stop offset="0" stop-color="#0a557f"/><stop offset="0" stop-color="#0b4368"/><stop offset="0" stop-color="#0d395b"/><stop offset="0" stop-color="#0d3556"/></linearGradient><linearGradient id="linear-gradient-5" x1="725.71" y1="662.11" x2="566.47" y2="662.11" gradientUnits="userSpaceOnUse"><stop offset="0" stop-color="#00aeef" stop-opacity="0.5"/><stop offset="0.56" stop-color="#01a7e7" stop-opacity="0.53"/><stop offset="0.76" stop-color="#038fc8" stop-opacity="0.63"/><stop offset="0.9" stop-color="#086593" stop-opacity="0.8"/><stop offset="1" stop-color="#0d3556"/></linearGradient><linearGradient id="linear-gradient-6" x1="505.63" y1="404.02" x2="513.75" y2="404.02" gradientUnits="userSpaceOnUse"><stop offset="0" stop-color="#1f5c96"/><stop offset="0" stop-color="#1e5992"/><stop offset="0.01" stop-color="#184c7c"/><stop offset="0.01" stop-color="#13426b"/><stop offset="0.02" stop-color="#0f3a5f"/><stop offset="0.02" stop-color="#0e3658"/><stop offset="0.04" stop-color="#0d3556"/><stop offset="0.18" stop-color="#0d3556"/><stop offset="1" stop-color="#0d3556"/></linearGradient><linearGradient id="linear-gradient-7" x1="616.78" y1="403.62" x2="623.22" y2="403.62" gradientUnits="userSpaceOnUse"><stop offset="0" stop-color="#fff"/><stop offset="0" stop-color="#d5dce2"/><stop offset="0" stop-color="#abb9c5"/><stop offset="0" stop-color="#8599aa"/><stop offset="0" stop-color="#657e93"/><stop offset="0" stop-color="#496780"/><stop offset="0" stop-color="#335570"/><stop offset="0" stop-color="#224664"/><stop offset="0" stop-color="#163c5c"/><stop offset="0" stop-color="#0f3757"/><stop offset="0" stop-color="#0d3556"/><stop offset="0.14" stop-color="#0d3556"/><stop offset="1" stop-color="#0d3556"/></linearGradient><linearGradient id="linear-gradient-8" x1="553.92" y1="667.31" x2="567.11" y2="667.31" gradientTransform="translate(-101.84 1233.67) rotate(-90.5)" xlink:href="#linear-gradient-3"/><linearGradient id="linear-gradient-9" x1="313.79" y1="584.14" x2="600.7" y2="584.14" gradientTransform="matrix(1, 0, 0, 1, 0, 0)" xlink:href="#linear-gradient-3"/></defs><path class="cls-1" d="M1,.12,725.71.59l-3.09,719.24L-.26,718.69Z"/><path class="cls-2" d="M717.58,578.41l-403.79,0,405-379.08"/><rect class="cls-3" x="276.19" y="660.62" width="153.26" height="11.85" transform="matrix(-0.01, 1, -1, -0.01, 1022.44, 319.61)"/><rect class="cls-4" x="493.61" y="388.61" width="138.62" height="6.39"/><rect class="cls-4" x="505.63" y="395.01" width="8.12" height="17.23"/><rect class="cls-4" x="616.78" y="395.01" width="6.44" height="17.23"/><path class="cls-5" d="M516.74,388.61l-7,6.4h122.5v-6.4Z"/><path class="cls-6" d="M612.62,578.41h109.5l.55,80.88q1.51,43.26,3,86.51H566.47q1.29-74.55,2.56-149.09l3.72-17.17Z"/><path class="cls-7" d="M505.63,399.31l4.1-4.3h4v18h-8.12Z"/><rect class="cls-8" x="616.78" y="395.01" width="6.44" height="17.23"/><rect class="cls-9" x="483.88" y="661.38" width="153.26" height="11.85" transform="translate(1232.72 112.69) rotate(90.5)"/><rect class="cls-10" x="313.79" y="578.41" width="286.91" height="11.46"/><g id="Artwork_3" data-name="Artwork 3"><path class="cls-11" d="M254.42,494.73l-19.59-7.63.67-93.59,18.92-1.15Z"/><path class="cls-12" d="M60.08,492.59l-16.87.33q.06-49.53.11-99.06l16.23.33Z"/><path class="cls-11" d="M60.08,591.57l-21.15,7.35V502.13H60.08Z"/><path class="cls-11" d="M61.19,486.7,43,496.49q.16-51.71.34-103.29l18.65.21Z"/><rect class="cls-13" x="251.62" y="594.16" width="2.79" height="9.5"/><path class="cls-14" d="M235.39,486.56l-174.2.14.91-97.47L236,389.3Q235.73,437.93,235.39,486.56Z"/><path class="cls-14" d="M236,591.45l-175.87.12V502.13l176.32-.62Z"/><rect class="cls-14" x="60.13" y="609.71" width="177.22" height="69.99"/><path class="cls-15" d="M234.83,490.75H58.23V487.1Z"/><path class="cls-16" d="M43.79,703.48H38.93V606.69h4.23Q43.49,655.08,43.79,703.48Z"/><rect class="cls-16" x="254.42" y="391.85" width="5.4" height="102.88"/><rect class="cls-16" x="254.41" y="606.69" width="5.4" height="96.79"/><path class="cls-11" d="M255.41,599.57,236,591.45l.51-89.94,18.92.29Z"/><path class="cls-11" d="M60.08,609.71v70L43.21,703.45V609.71Z"/><path class="cls-11" d="M254.41,703.48l-17-23.73v-70l17-.06Z"/><path class="cls-11" d="M236,591.45H59.85l-20.92,7.47q55,.47,110,.46,52.74,0,105.47-.46Z"/><path class="cls-11" d="M254.41,703.48H43.79l16.83-23.73H237.4Z"/><path class="cls-16" d="M260.17,719.05l-222.35-.37q.54-7.6,1.11-15.2H259.82Q260,711.28,260.17,719.05Z"/><path class="cls-16" d="M259.82,609.65H38.93V598.92H259.82Z"/><rect class="cls-16" x="38.9" y="502.13" width="3.93" height="96.79"/><rect class="cls-16" x="254.41" y="499.97" width="5.4" height="98.95"/><path class="cls-16" d="M259.82,502.07l-220.89.06v-7.47l220.92.07Z"/><rect class="cls-16" x="38.69" y="386.45" width="4.35" height="110.04"/><path class="cls-16" d="M259.82,393.34q-55.57.38-111.17.37-54.89,0-109.75-.37V382.88H259.82Z"/><path class="cls-11" d="M257.43,495.63l-218.5.23,23.89-10.51,173.5.41Z"/></g><rect class="cls-17" x="54.48" y="70.96" width="91.7" height="113.57"/></svg>